<?xml version="1.0" encoding="utf-8"?>
<!-- Generator: Adobe Illustrator 26.1.0, SVG Export Plug-In . SVG Version: 6.00 Build 0)  -->
<svg version="1.1" id="Capa_1" xmlns="http://www.w3.org/2000/svg" xmlns:xlink="http://www.w3.org/1999/xlink" x="0px" y="0px"
	 viewBox="0 0 157 36" style="enable-background:new 0 0 157 36;" xml:space="preserve">
<style type="text/css">
	.st0{fill:#B65818;stroke:#080806;stroke-width:0.1;stroke-miterlimit:10;}
	.st1{fill:#030405;}
	.st2{fill:#F5C71C;}
	.st3{fill:#F5C71C;stroke:#04040A;stroke-width:0.1;stroke-linecap:round;stroke-linejoin:round;stroke-miterlimit:10;}
</style>
<g>
	<g>
		<g>
			<g>
				<g>
					<path class="st0" d="M12.49,25.52l-0.82,0.82c-0.41,0.41-1.08,0.41-1.5,0l-0.38-0.38c-0.41-0.41-0.41-1.08,0-1.5l0.82-0.82
						c0.41-0.41,1.08-0.41,1.5,0l0.38,0.38C12.91,24.44,12.91,25.11,12.49,25.52z"/>
				</g>
				<g>
					<path class="st0" d="M10.11,23.22l-0.56,0.22c-0.6,0.23-1.27-0.06-1.5-0.66l-0.24-0.62c-0.23-0.6,0.06-1.27,0.66-1.5l0.56-0.22
						c0.6-0.23,1.27,0.06,1.5,0.66l0.24,0.62C11,22.32,10.71,22.99,10.11,23.22z"/>
				</g>
				<g>
					<path class="st0" d="M15.32,27l-0.49,0.97c-0.27,0.54-0.93,0.76-1.47,0.49l-0.5-0.25c-0.54-0.27-0.76-0.93-0.49-1.47l0.49-0.97
						c0.27-0.54,0.93-0.76,1.47-0.49l0.5,0.25C15.37,25.8,15.59,26.46,15.32,27z"/>
				</g>
			</g>
			<g>
				<g>
					<path class="st0" d="M23.04,25.52l0.82,0.82c0.41,0.41,1.08,0.41,1.5,0l0.38-0.38c0.41-0.41,0.41-1.08,0-1.5l-0.82-0.82
						c-0.41-0.41-1.08-0.41-1.5,0l-0.38,0.38C22.62,24.44,22.62,25.11,23.04,25.52z"/>
				</g>
				<g>
					<path class="st0" d="M25.42,23.22l0.56,0.22c0.6,0.23,1.27-0.06,1.5-0.66l0.24-0.62c0.23-0.6-0.06-1.27-0.66-1.5l-0.56-0.22
						c-0.6-0.23-1.27,0.06-1.5,0.66l-0.24,0.62C24.53,22.32,24.82,22.99,25.42,23.22z"/>
				</g>
				<g>
					<path class="st0" d="M20.21,27l0.49,0.97c0.27,0.54,0.93,0.76,1.47,0.49l0.5-0.25c0.54-0.27,0.76-0.93,0.49-1.47l-0.49-0.97
						c-0.27-0.54-0.93-0.76-1.47-0.49l-0.5,0.25C20.16,25.8,19.94,26.46,20.21,27z"/>
				</g>
			</g>
			<g>
				<g>
					<path class="st0" d="M12.49,10.66l-0.82-0.82c-0.41-0.41-1.08-0.41-1.5,0l-0.38,0.38c-0.41,0.41-0.41,1.08,0,1.5l0.82,0.82
						c0.41,0.41,1.08,0.41,1.5,0l0.38-0.38C12.91,11.74,12.91,11.07,12.49,10.66z"/>
				</g>
				<g>
					<path class="st0" d="M10.11,12.95l-0.56-0.22c-0.6-0.23-1.27,0.06-1.5,0.66l-0.24,0.62c-0.23,0.6,0.06,1.27,0.66,1.5l0.56,0.22
						c0.6,0.23,1.27-0.06,1.5-0.66l0.24-0.62C11,13.86,10.71,13.19,10.11,12.95z"/>
				</g>
				<g>
					<path class="st0" d="M15.32,9.18l-0.49-0.97c-0.27-0.54-0.93-0.76-1.47-0.49l-0.5,0.25c-0.54,0.27-0.76,0.93-0.49,1.47
						l0.49,0.97c0.27,0.54,0.93,0.76,1.47,0.49l0.5-0.25C15.37,10.38,15.59,9.72,15.32,9.18z"/>
				</g>
			</g>
			<g>
				<g>
					<path class="st0" d="M23.04,10.66l0.82-0.82c0.41-0.41,1.08-0.41,1.5,0l0.38,0.38c0.41,0.41,0.41,1.08,0,1.5l-0.82,0.82
						c-0.41,0.41-1.08,0.41-1.5,0l-0.38-0.38C22.62,11.74,22.62,11.07,23.04,10.66z"/>
				</g>
				<g>
					<path class="st0" d="M25.42,12.95l0.56-0.22c0.6-0.23,1.27,0.06,1.5,0.66l0.24,0.62c0.23,0.6-0.06,1.27-0.66,1.5l-0.56,0.22
						c-0.6,0.23-1.27-0.06-1.5-0.66l-0.24-0.62C24.53,13.86,24.82,13.19,25.42,12.95z"/>
				</g>
				<g>
					<path class="st0" d="M20.21,9.18l0.49-0.97c0.27-0.54,0.93-0.76,1.47-0.49l0.5,0.25c0.54,0.27,0.76,0.93,0.49,1.47l-0.49,0.97
						c-0.27,0.54-0.93,0.76-1.47,0.49l-0.5-0.25C20.16,10.38,19.94,9.72,20.21,9.18z"/>
				</g>
			</g>
		</g>
		<g>
			<circle class="st1" cx="17.76" cy="18.09" r="6.04"/>
		</g>
		<g>
			<path class="st2" d="M17.76,10.39c-4.25,0-7.7,3.45-7.7,7.7s3.45,7.7,7.7,7.7s7.7-3.45,7.7-7.7S22.02,10.39,17.76,10.39z
				 M17.76,24.13c-3.33,0-6.04-2.7-6.04-6.04c0-3.33,2.7-6.04,6.04-6.04s6.04,2.7,6.04,6.04C23.8,21.42,21.1,24.13,17.76,24.13z"/>
		</g>
		<g>
			<path class="st0" d="M17.76,9.07c-4.98,0-9.02,4.04-9.02,9.02s4.04,9.02,9.02,9.02s9.02-4.04,9.02-9.02S22.75,9.07,17.76,9.07z
				 M17.76,25.79c-4.25,0-7.7-3.45-7.7-7.7s3.45-7.7,7.7-7.7s7.7,3.45,7.7,7.7S22.02,25.79,17.76,25.79z"/>
		</g>
	</g>
	<g>
		<g>
			<path class="st3" d="M24.55,22.63c0.03,0.27,0.11,0.6,0.45,0.99c0.5,0.57,1.23,0.75,1.64,0.4c0.4-0.35,0.33-1.1-0.17-1.68
				c-0.1-0.12-0.22-0.22-0.34-0.3c0.27-0.17,0.75-0.38,1.58-0.62c2-0.57,7.63-3.33,7.63-3.33h-3.61c0,0-1.95,1.1-4.58,2.08
				C26.31,20.48,24.37,21.2,24.55,22.63z"/>
			<path class="st3" d="M24.55,13.55c0.03-0.27,0.11-0.6,0.45-0.99c0.5-0.57,1.23-0.75,1.64-0.4s0.33,1.1-0.17,1.68
				c-0.1,0.12-0.22,0.22-0.34,0.3c0.27,0.17,0.75,0.38,1.58,0.62c2,0.57,7.63,3.33,7.63,3.33h-3.61c0,0-1.95-1.1-4.58-2.08
				C26.32,15.69,24.37,14.97,24.55,13.55z"/>
		</g>
		<g>
			<path class="st3" d="M10.98,13.55c-0.03-0.27-0.11-0.6-0.45-0.99c-0.5-0.57-1.23-0.75-1.64-0.4c-0.4,0.35-0.33,1.1,0.17,1.68
				c0.1,0.12,0.22,0.22,0.34,0.3c-0.27,0.17-0.75,0.38-1.58,0.62c-2,0.57-7.63,3.33-7.63,3.33H3.8c0,0,1.95-1.1,4.58-2.08
				C9.22,15.69,11.16,14.97,10.98,13.55z"/>
			<path class="st3" d="M10.98,22.63c-0.03,0.27-0.11,0.6-0.45,0.99c-0.5,0.57-1.23,0.75-1.64,0.4c-0.4-0.35-0.33-1.1,0.17-1.68
				c0.1-0.12,0.22-0.22,0.34-0.3c-0.27-0.17-0.75-0.38-1.58-0.62c-2-0.57-7.63-3.33-7.63-3.33H3.8c0,0,1.95,1.1,4.58,2.08
				C9.21,20.48,11.16,21.2,10.98,22.63z"/>
		</g>
	</g>
	<g>
		<g>
			<path class="st3" d="M22.3,11.31c0.27-0.03,0.6-0.11,0.99-0.45c0.57-0.5,0.75-1.23,0.4-1.64c-0.35-0.4-1.1-0.33-1.68,0.17
				c-0.12,0.1-0.22,0.22-0.3,0.34c-0.17-0.27-0.38-0.75-0.62-1.58c-0.57-2-3.33-7.63-3.33-7.63v3.61c0,0,1.1,1.95,2.08,4.58
				C20.16,9.54,20.88,11.48,22.3,11.31z"/>
			<path class="st3" d="M13.23,11.3c-0.27-0.03-0.6-0.11-0.99-0.45c-0.57-0.5-0.75-1.23-0.4-1.64s1.1-0.33,1.68,0.17
				c0.12,0.1,0.22,0.22,0.3,0.34c0.17-0.27,0.38-0.75,0.62-1.58c0.57-2,3.33-7.63,3.33-7.63v3.61c0,0-1.1,1.95-2.08,4.58
				C15.37,9.54,14.65,11.48,13.23,11.3z"/>
		</g>
		<g>
			<path class="st3" d="M13.23,24.87c-0.27,0.03-0.6,0.11-0.99,0.45c-0.57,0.5-0.75,1.23-0.4,1.64c0.35,0.4,1.1,0.33,1.68-0.17
				c0.12-0.1,0.22-0.22,0.3-0.34c0.17,0.27,0.38,0.75,0.62,1.58c0.57,2,3.33,7.63,3.33,7.63v-3.61c0,0-1.1-1.95-2.08-4.58
				C15.37,26.64,14.65,24.69,13.23,24.87z"/>
			<path class="st3" d="M22.3,24.87c0.27,0.03,0.6,0.11,0.99,0.45c0.57,0.5,0.75,1.23,0.4,1.64s-1.1,0.33-1.68-0.17
				c-0.12-0.1-0.22-0.22-0.3-0.34c-0.17,0.27-0.38,0.75-0.62,1.58c-0.57,2-3.33,7.63-3.33,7.63v-3.61c0,0,1.1-1.95,2.08-4.58
				C20.16,26.64,20.88,24.7,22.3,24.87z"/>
		</g>
	</g>
</g>
<path d="M70.65,33.9L60.16,17.64V33.9h-4.21V2.63l14.7,22.5l14.68-22.5V33.9h-4.21V17.64L70.65,33.9z"/>
<path d="M96.21,2.63h4.22v14.62c1.43-0.89,3.01-1.34,4.76-1.34c2.49,0,4.61,0.89,6.37,2.66c1.76,1.75,2.64,3.86,2.64,6.35
	c0,2.47-0.88,4.59-2.64,6.35c-1.76,1.76-3.88,2.64-6.37,2.64c-2.47,0-4.58-0.88-6.33-2.64c-1.77-1.76-2.66-3.87-2.66-6.35V2.63z
	 M101.87,21.57c-0.91,0.93-1.36,2.05-1.36,3.35c0,1.29,0.45,2.4,1.36,3.33c0.93,0.92,2.04,1.38,3.33,1.38c1.3,0,2.42-0.46,3.35-1.38
	c0.92-0.93,1.38-2.04,1.38-3.33c0-1.3-0.46-2.42-1.38-3.35c-0.93-0.92-2.05-1.38-3.35-1.38C103.91,20.2,102.8,20.66,101.87,21.57z"
	/>
<path d="M137.08,32.57c-1.41,0.89-3.01,1.34-4.78,1.34c-2.47,0-4.58-0.88-6.33-2.64c-1.77-1.76-2.66-3.87-2.66-6.35
	s0.89-4.58,2.66-6.33c1.75-1.77,3.85-2.66,6.33-2.66c2.49,0,4.61,0.89,6.37,2.66c1.76,1.75,2.64,3.85,2.64,6.33v8.98h-4.22V32.57z
	 M128.98,21.59c-0.91,0.93-1.36,2.04-1.36,3.33c0,1.29,0.45,2.4,1.36,3.33c0.93,0.92,2.04,1.38,3.33,1.38c1.3,0,2.42-0.46,3.35-1.38
	c0.92-0.93,1.38-2.04,1.38-3.33c0-1.29-0.46-2.4-1.38-3.33c-0.93-0.92-2.05-1.38-3.35-1.38C131.02,20.22,129.91,20.68,128.98,21.59z
	"/>
<path d="M155.86,33.9h-4.22V2.63h4.22V33.9z"/>
</svg>
